<svg id="icons_アートボード_1" data-name="icons_アートボード 1" xmlns="http://www.w3.org/2000/svg" width="320.552" height="161.216" viewBox="0 0 320.552 161.216">
  <path id="パス_33" data-name="パス 33" d="M238.267,67.3a33.639,33.639,0,1,1,33.652-33.643A33.639,33.639,0,0,1,238.267,67.3Z" transform="translate(48.632 0.005)" fill="#c9caca"/>
  <path id="パス_34" data-name="パス 34" d="M236.66,33.627V0A33.639,33.639,0,1,1,211.4,55.843Z" transform="translate(50.239 0)" fill="#0086d1"/>
  <circle id="楕円形_2" data-name="楕円形 2" cx="23.342" cy="23.342" r="23.342" transform="translate(263.557 10.285)" fill="#7ecef4"/>
  <path id="パス_35" data-name="パス 35" d="M225.178,23.778a2.314,2.314,0,0,0,.866.446,3.577,3.577,0,0,0,.941.124,2.586,2.586,0,0,0,1.027-.21,2.773,2.773,0,0,0,.817-.594,2.625,2.625,0,0,0,.557-.842,2.475,2.475,0,0,0,.2-1v-.705H227.9v.569a1.238,1.238,0,0,1-.1.557.953.953,0,0,1-.235.359,1.052,1.052,0,0,1-.347.186,1.238,1.238,0,0,1-.347,0,.866.866,0,0,1-.78-.334,1.6,1.6,0,0,1-.21-.842v-5.78a2.029,2.029,0,0,1,.2-.965.842.842,0,0,1,.8-.371.879.879,0,0,1,.743.347,1.324,1.324,0,0,1,.272.842V16.1h1.634v-.582a2.91,2.91,0,0,0-.2-1.1,2.612,2.612,0,0,0-.557-.866,2.475,2.475,0,0,0-1.869-.755,2.846,2.846,0,0,0-1.089.2,2.624,2.624,0,0,0-.842.557,2.364,2.364,0,0,0-.545.829,2.871,2.871,0,0,0-.186,1.04v6.287a2.809,2.809,0,0,0,.248,1.238,2.475,2.475,0,0,0,.681.829Z" transform="translate(53.292 3.042)" fill="#0086d1"/>
  <path id="パス_36" data-name="パス 36" d="M230.147,23.58a2.624,2.624,0,0,0,.879.569,2.785,2.785,0,0,0,1.114.21,3.242,3.242,0,0,0,1.324-.248,2.4,2.4,0,0,0,.891-.705,3.02,3.02,0,0,0,.458-1.052,5.855,5.855,0,0,0,.149-1.349,10.054,10.054,0,0,0,0-1.114,2.958,2.958,0,0,0-.248-.866,1.918,1.918,0,0,0-.532-.656,3.082,3.082,0,0,0-.879-.483l-1.238-.507a2.772,2.772,0,0,1-.507-.248,1.114,1.114,0,0,1-.285-.309,1.052,1.052,0,0,1-.111-.4,3.93,3.93,0,0,1,0-.569,2.826,2.826,0,0,1,0-.557,1.077,1.077,0,0,1,.507-.792,1.015,1.015,0,0,1,.545-.124.978.978,0,0,1,.891.408,1.77,1.77,0,0,1,.272.965v.371h1.634v-.8a2.476,2.476,0,0,0-.743-1.757,2.964,2.964,0,0,0-3.23-.569,2.289,2.289,0,0,0-.854.668,2.636,2.636,0,0,0-.532.99,3.937,3.937,0,0,0-.173,1.238,3.862,3.862,0,0,0,.359,1.795,2.562,2.562,0,0,0,1.411,1.151l1.176.483a4.806,4.806,0,0,1,.5.235.94.94,0,0,1,.3.285,1.435,1.435,0,0,1,.124.47,6,6,0,0,1,0,.743v.693a1.348,1.348,0,0,1-.161.532.755.755,0,0,1-.359.347,1.324,1.324,0,0,1-.644.124,1.04,1.04,0,0,1-.891-.359,1.3,1.3,0,0,1-.272-.817v-.507H229.38v.606a2.476,2.476,0,0,0,.223,1.064,2.6,2.6,0,0,0,.545.842Z" transform="translate(54.511 3.03)" fill="#0086d1"/>
  <path id="パス_37" data-name="パス 37" d="M235.4,23.57a2.561,2.561,0,0,0,.928.619,2.685,2.685,0,0,0,1.1.21,3.342,3.342,0,0,0,1.337-.248,2.364,2.364,0,0,0,.879-.705,2.81,2.81,0,0,0,.458-1.052,5.854,5.854,0,0,0,.149-1.349,10.039,10.039,0,0,0,0-1.114,2.957,2.957,0,0,0-.235-.866,2.253,2.253,0,0,0-.532-.656,3,3,0,0,0-.891-.483l-1.238-.507a2.774,2.774,0,0,1-.507-.248.99.99,0,0,1-.4-.705V15.9a2.83,2.83,0,0,1,0-.557,1.423,1.423,0,0,1,.173-.47,1.236,1.236,0,0,1,.334-.322,1.064,1.064,0,0,1,.557-.124,1,1,0,0,1,.891.408,1.758,1.758,0,0,1,.26.965v.371h1.634v-.8a2.475,2.475,0,0,0-.73-1.757,2.9,2.9,0,0,0-.879-.594,2.71,2.71,0,0,0-1.114-.223,2.785,2.785,0,0,0-1.238.248,2.29,2.29,0,0,0-.854.668,2.823,2.823,0,0,0-.532.99,4.355,4.355,0,0,0-.173,1.238,4.022,4.022,0,0,0,.359,1.795,2.636,2.636,0,0,0,1.423,1.151l1.163.483a3.816,3.816,0,0,1,.5.235.941.941,0,0,1,.3.285,1.238,1.238,0,0,1,.124.47,6.029,6.029,0,0,1,0,.743v.693a1.164,1.164,0,0,1-.149.532.78.78,0,0,1-.371.347,1.324,1.324,0,0,1-.644.124,1.04,1.04,0,0,1-.891-.359,1.361,1.361,0,0,1-.26-.817v-.507H234.6v.606a2.476,2.476,0,0,0,.223,1.064A2.809,2.809,0,0,0,235.4,23.57Z" transform="translate(55.752 3.039)" fill="#0086d1"/>
  <path id="パス_38" data-name="パス 38" d="M241.586,43.867a.371.371,0,0,0,.322-.4c.248-2.958.5-5.9.755-8.862.062-.829.136-1.658.235-2.475,0-.347,0-.446-.4-.446h-8.465v-.074l.668-.309,8.218-3.527a.532.532,0,0,0,.371-.52c.087-1.027.186-2.042.322-3.069,0-.371-.062-.458-.421-.458H224.221c-.347,0-.47.087-.408.458.136.965.26,1.943.359,2.921,0,.371.161.52.582.52h8.911c.074,0,.161,0,.161.111a.161.161,0,0,1-.1.124,1.522,1.522,0,0,1-.322.149c-2.8,1.163-5.569,2.339-8.366,3.478a.582.582,0,0,0-.421.705c.111,1.089.186,2.166.285,3.255h7.426l5.879.062c.347,0,.408.124.384.421q-.149,2.154-.26,4.307c0,.186,0,.334-.26.408l-4.183,1.139h0a.482.482,0,0,1-.186,0l-3.985-.99c-.248,0-.248-.21-.26-.4-.062-.817-.136-1.634-.2-2.475,0-.21,0-.359-.322-.359H225.5c-.186,0-.26,0-.235.26.148,1.795.3,3.577.433,5.371a.557.557,0,0,0,.5.569l7.624,2.265,5.3-1.535Z" transform="translate(53.185 5.639)" fill="#0086d1"/>
  <path id="パス_39" data-name="パス 39" d="M231.663,38.71a.421.421,0,0,1-.173,0A.421.421,0,0,0,231.663,38.71Z" transform="translate(55.013 9.199)" fill="#fff"/>
  <path id="パス_40" data-name="パス 40" d="M33.652,67.3A33.652,33.652,0,1,1,67.3,33.652,33.652,33.652,0,0,1,33.652,67.3Z" transform="translate(0 0)" fill="#c9caca"/>
  <path id="パス_41" data-name="パス 41" d="M33.652,33.652V0A33.652,33.652,0,1,1,0,33.652Z" transform="translate(0 0)" fill="#f18e38"/>
  <circle id="楕円形_3" data-name="楕円形 3" cx="23.342" cy="23.342" r="23.342" transform="translate(10.31 10.421)" fill="#52251d"/>
  <path id="パス_42" data-name="パス 42" d="M15.27,39.414,22.114,18.25h5.2l6.844,21.164H28.971l-1.163-4.579H21.619l-1.163,4.579ZM22.461,31.1h4.406L24.688,22.52h0Z" transform="translate(3.629 4.337)" fill="#f18e38"/>
  <path id="パス_43" data-name="パス 43" d="M33.19,20.213h0A2.475,2.475,0,0,1,35.665,17.8h.087a2.475,2.475,0,0,1,2.475,2.413h0a2.475,2.475,0,0,1-2.475,2.413h-.087A2.475,2.475,0,0,1,33.19,20.213Zm0,19.307V24.471h4.951v15.05Z" transform="translate(7.888 4.23)" fill="#f18e38"/>
  <path id="パス_44" data-name="パス 44" d="M102.672,67.3a33.652,33.652,0,1,1,33.652-33.652A33.652,33.652,0,0,1,102.672,67.3Z" transform="translate(16.402 0)" fill="#c9caca"/>
  <path id="パス_45" data-name="パス 45" d="M98.582,33.652,98.606,0A33.652,33.652,0,1,1,86.23,64.976Z" transform="translate(20.492 0)" fill="#579ed7"/>
  <circle id="楕円形_4" data-name="楕円形 4" cx="23.342" cy="23.342" r="23.342" transform="translate(95.732 10.31)" fill="#081e34"/>
  <path id="パス_46" data-name="パス 46" d="M88.611,32.778v7.277H83.66V18.31h5.953c3.49,0,6.052.557,7.661,1.683a5.767,5.767,0,0,1,2.475,5.1q0,7.624-8.664,7.624Zm0-3.713h1.856a5.309,5.309,0,0,0,3.354-.9,3.3,3.3,0,0,0,1.139-2.809,2.834,2.834,0,0,0-1.052-2.475,5.9,5.9,0,0,0-3.441-.78H88.611Z" transform="translate(19.882 4.351)" fill="#579ed7"/>
  <path id="パス_47" data-name="パス 47" d="M110.706,27.29a16.894,16.894,0,0,0-5.161-.817,3.775,3.775,0,0,0-1.72.285.99.99,0,0,0-.483.9c0,.755.594,1.238,1.795,1.485a9.666,9.666,0,0,1,4.728,1.795,4.455,4.455,0,0,1,1.361,3.5,4.035,4.035,0,0,1-1.671,3.465,8.02,8.02,0,0,1-4.852,1.238,20.891,20.891,0,0,1-6.04-.866V34.654a14.852,14.852,0,0,0,5.458,1.015c1.473,0,2.2-.433,2.2-1.238a1.114,1.114,0,0,0-.408-.916,3.775,3.775,0,0,0-1.51-.569,9.233,9.233,0,0,1-4.592-1.832,4.245,4.245,0,0,1-1.374-3.3,4.022,4.022,0,0,1,1.646-3.428,8.28,8.28,0,0,1,4.951-1.238,24.542,24.542,0,0,1,5.631.668Z" transform="translate(23.393 5.495)" fill="#579ed7"/>
  <path id="パス_48" data-name="パス 48" d="M170.462,67.3a33.652,33.652,0,1,1,33.652-33.652A33.652,33.652,0,0,1,170.462,67.3Z" transform="translate(32.513 0)" fill="#c9caca"/>
  <path id="パス_49" data-name="パス 49" d="M168.71,33.652V0a33.649,33.649,0,1,1-24.53,56.7Z" transform="translate(34.264 0)" fill="#d84f29"/>
  <circle id="楕円形_5" data-name="楕円形 5" cx="23.342" cy="23.342" r="23.342" transform="translate(179.657 10.272)" fill="#f3994f"/>
  <path id="パス_50" data-name="パス 50" d="M154.19,24.713V13.29h1.634v4.889h2.03V13.29h1.634V24.713h-1.634V19.627h-2.03v5.087Z" transform="translate(36.643 3.158)" fill="#d84f29"/>
  <path id="パス_51" data-name="パス 51" d="M160.944,24.713v-9.9H159.05V13.29h5.433v1.535H162.59v9.9Z" transform="translate(37.798 3.158)" fill="#d84f29"/>
  <path id="パス_52" data-name="パス 52" d="M164,24.713V13.29h1.572l2.1,6.04h0l2.092-6.04h1.658V24.713h-1.634V17.758h0l-1.621,4.951h-.817l-1.6-4.951h0v6.956Z" transform="translate(38.974 3.158)" fill="#d84f29"/>
  <path id="パス_53" data-name="パス 53" d="M171.23,24.713V13.29h1.634v9.777h3.243v1.646Z" transform="translate(40.692 3.158)" fill="#d84f29"/>
  <path id="パス_54" data-name="パス 54" d="M175.284,24.62H157.1c-.223,0-.235.1-.223.272,0,.458.1.916.136,1.361.285,3.168.569,6.324.842,9.493,0,.2.087.248.272.248h12.513c.186,0,.3,0,.272.26-.148,1.423-.272,2.859-.384,4.295a.384.384,0,0,1-.334.4l-3.874,1.064c-1.238-.359-2.574-.718-3.874-1.052a.4.4,0,0,1-.359-.433c-.062-.78-.136-1.559-.2-2.339,0-.235-.1-.322-.347-.309H158.44c-.309,0-.347.1-.322.371.161,1.757.322,3.515.47,5.285,0,.21.111.26.3.309,1.51.421,3.007.854,4.517,1.238.978.26,1.931.582,2.921.767a.333.333,0,0,0,.111,0l7.426-2.042a.272.272,0,0,0,.235-.285c0-.384.062-.767.1-1.139.285-3.267.569-6.535.879-9.79,0-.371-.087-.4-.384-.384h-12.9c-.309,0-.408-.087-.433-.4-.074-1.027-.149-2.042-.272-3.069,0-.322,0-.4.359-.4h13.9l.074-.062c.161-1.1.2-2.215.322-3.317C175.705,24.682,175.594,24.62,175.284,24.62Z" transform="translate(37.281 5.851)" fill="#d84f29"/>
  <path id="パス_55" data-name="パス 55" d="M171.73,27.682l.074-.062C171.8,27.682,171.779,27.694,171.73,27.682Z" transform="translate(40.811 6.564)" fill="#d84f29"/>
  <path id="パス_56" data-name="パス 56" d="M27.222,27.12a.149.149,0,0,1,0,.173C27.136,27.231,27.136,27.17,27.222,27.12Z" transform="translate(6.454 6.445)" fill="#9194c9"/>
  <path id="パス_57" data-name="パス 57" d="M27.2,27.16v.074C27.2,27.309,27.155,27.172,27.2,27.16Z" transform="translate(6.46 6.454)" fill="#9194c9"/>
  <path id="パス_58" data-name="パス 58" d="M27.19,27.18Z" transform="translate(6.462 6.459)" fill="#9194c9"/>
  <path id="パス_59" data-name="パス 59" d="M27.19,27.18Z" transform="translate(6.462 6.459)" fill="#9194c9"/>
  <path id="パス_60" data-name="パス 60" d="M27.19,27.18Z" transform="translate(6.462 6.459)" fill="#9194c9"/>
  <path id="パス_61" data-name="パス 61" d="M33.652,143.183A33.652,33.652,0,1,1,67.3,109.532a33.652,33.652,0,0,1-33.652,33.652Z" transform="translate(0 18.033)" fill="#c9caca"/>
  <path id="パス_62" data-name="パス 62" d="M27.19,109.532V75.88A33.627,33.627,0,0,1,55.569,91.45Z" transform="translate(6.462 18.033)" fill="#9194c9"/>
  <circle id="楕円形_6" data-name="楕円形 6" cx="23.342" cy="23.342" r="23.342" transform="translate(10.31 104.222)" fill="#192448"/>
  <path id="パス_63" data-name="パス 63" d="M29.444,113.829H27.625c-.347,0-.359,0-.47-.334-.47-1.361-.953-2.735-1.411-4.1-.062-.149-.111-.21-.285-.21h-6.5a.248.248,0,0,0-.285.21c-.421,1.361-.866,2.723-1.312,4.084-.087.3-.161.347-.47.347H13.6c-.371,0-.446-.1-.322-.446q1.337-3.824,2.649-7.624,1.683-4.827,3.354-9.654a5.223,5.223,0,0,0,.26-1.572c0-.309,0-.334.347-.334h4.567c.21,0,.3,0,.371.26L31.1,112.146c.161.446.322.891.47,1.337s0,.347-.248.347ZM22.167,97.74a1.637,1.637,0,0,1-.1.408c-.619,2.389-1.4,4.728-2.166,7.067,0,.173,0,.21.149.21H24.37a.235.235,0,0,0,.173,0C23.776,102.839,22.848,100.314,22.167,97.74Z" transform="translate(3.143 22.386)" fill="#9194c9"/>
  <path id="パス_64" data-name="パス 64" d="M33.411,106.626a3.267,3.267,0,0,0,2.921,3,9.159,9.159,0,0,0,4.951-.545c.173-.074.223,0,.223.136v2.847a.421.421,0,0,1-.26.408,8.763,8.763,0,0,1-2.673.73,14.951,14.951,0,0,1-2.352.1,7.426,7.426,0,0,1-4.357-1.436,6.621,6.621,0,0,1-2.475-3.824,9.146,9.146,0,0,1,.582-6.275,6.535,6.535,0,0,1,4.765-3.837,7.2,7.2,0,0,1,4.629.483,5.743,5.743,0,0,1,2.958,3.6,7.7,7.7,0,0,1,.334,3.094,4.993,4.993,0,0,1-.087,1.126.3.3,0,0,1-.309.3c-.594,0-1.238.1-1.795.1H33.411Zm2.661-2.908h2.55c.149,0,.21,0,.2-.21a2.7,2.7,0,0,0-.322-1.1,2.636,2.636,0,0,0-3.4-1.064,2.809,2.809,0,0,0-1.646,2.178c0,.186,0,.248.173.235Z" transform="translate(6.911 23.228)" fill="#9194c9"/>
  <path id="パス_65" data-name="パス 65" d="M139.75,27.253v-.111C139.75,27.1,139.812,27.228,139.75,27.253Z" transform="translate(33.211 6.448)" fill="#bf72ac"/>
  <path id="パス_66" data-name="パス 66" d="M102.672,143.183a33.652,33.652,0,1,1,33.652-33.652,33.652,33.652,0,0,1-33.652,33.652Z" transform="translate(16.402 18.033)" fill="#c9caca"/>
  <path id="パス_67" data-name="パス 67" d="M99.7,109.532V75.88A33.652,33.652,0,1,1,81.52,137.911Z" transform="translate(19.373 18.033)" fill="#bf72ac"/>
  <circle id="楕円形_7" data-name="楕円形 7" cx="23.342" cy="23.342" r="23.342" transform="translate(95.732 104.222)" fill="#441437"/>
  <path id="パス_68" data-name="パス 68" d="M76.3,90.92a.124.124,0,0,1,0,.161A.112.112,0,0,1,76.3,90.92Z" transform="translate(18.124 21.607)" fill="#bf72ac"/>
  <path id="パス_69" data-name="パス 69" d="M76.336,90.59V90.7C76.336,90.726,76.262,90.615,76.336,90.59Z" transform="translate(18.133 21.528)" fill="#bf72ac"/>
  <path id="パス_70" data-name="パス 70" d="M76.363,90.39Z" transform="translate(18.144 21.481)" fill="#bf72ac"/>
  <path id="パス_71" data-name="パス 71" d="M110.733,103.721v8.664a8.127,8.127,0,0,0,.087,1.448c0,.3,0,.347-.309.47a14.371,14.371,0,0,1-3.713.941,15.526,15.526,0,0,1-2.141.111,7.908,7.908,0,0,1-4.666-1.473,6.188,6.188,0,0,1-2.352-3.812,9.023,9.023,0,0,1-.173-2.636,7.1,7.1,0,0,1,2.475-4.951,7.785,7.785,0,0,1,3.985-1.807,9.418,9.418,0,0,1,2.475-.1c.186,0,.235,0,.235-.21V95.082c0-.309,0-.322.334-.322h3.366c.272,0,.3,0,.3.3v8.664Zm-3.936,4.171v-3.713c0-.149,0-.223-.21-.26a4.728,4.728,0,0,0-2.079.1,3.713,3.713,0,0,0-2.624,2.364,4.951,4.951,0,0,0-.111,2.686,3.292,3.292,0,0,0,1.473,2.29,4.777,4.777,0,0,0,3.428.458c.149,0,.111-.124.111-.21Z" transform="translate(23.155 22.519)" fill="#bf72ac"/>
  <path id="パス_72" data-name="パス 72" d="M91.879,107.735l-.8,1.572c-.941,1.745-1.856,3.5-2.834,5.235a.384.384,0,0,1-.371.248H83.958c-.2,0-.26-.149-.136-.359s.483-.792.73-1.238q2.339-3.861,4.7-7.723a.26.26,0,0,0,0-.309Q86.78,100.99,84.3,96.794c-.111-.186-.235-.371-.347-.569s0-.285.149-.285h4.134a.4.4,0,0,1,.371.248c.891,1.993,2.067,3.837,3.082,5.755.173.322.334.644.52,1.015l.235-.483c.928-1.869,1.943-3.713,2.908-5.52.149-.26.285-.532.421-.8a.347.347,0,0,1,.359-.21H99.85c.087,0,.186,0,.235.074s0,.186,0,.272l-2.847,4.691c-.78,1.238-1.572,2.6-2.364,3.9a.26.26,0,0,0,0,.309l5.5,9c.074.136.223.26.136.433s-.3.124-.458.124H96.335a.792.792,0,0,1-.792-.458c-1.064-2.166-2.252-4.27-3.416-6.4a.446.446,0,0,0-.247-.149Z" transform="translate(19.905 22.799)" fill="#bf72ac"/>
  <path id="パス_73" data-name="パス 73" d="M238.272,143.183a33.652,33.652,0,1,1,33.652-33.652,33.652,33.652,0,0,1-33.652,33.652Z" transform="translate(48.627 18.033)" fill="#c9caca"/>
  <path id="パス_74" data-name="パス 74" d="M231.81,109.532V75.88a33.639,33.639,0,0,1,30.149,48.553Z" transform="translate(55.089 18.033)" fill="#ffe200"/>
  <circle id="楕円形_8" data-name="楕円形 8" cx="23.342" cy="23.342" r="23.342" transform="translate(263.557 104.185)" fill="#f1b115"/>
  <path id="パス_75" data-name="パス 75" d="M239.52,103.55h.074A.116.116,0,0,1,239.52,103.55Z" transform="translate(56.921 24.608)" fill="#d84f29"/>
  <path id="パス_76" data-name="パス 76" d="M242.029,108.619h0c0-.21-.124-.248-.371-.235H229.281c-.186,0-.3,0-.272-.248.149-1.436.272-2.871.384-4.307a.384.384,0,0,1,.334-.4c1.3-.334,2.587-.705,3.874-1.052,1.238.347,2.574.718,3.874,1.04a.408.408,0,0,1,.359.433c0,.78.136,1.559.2,2.352,0,.235.1.309.346.309h3.107c.309,0,.347-.1.322-.371-.161-1.757-.322-3.527-.47-5.285,0-.21-.111-.272-.3-.322L236.521,99.3c-.978-.26-1.931-.582-2.921-.78h-.111l-7.426,2.042a.285.285,0,0,0-.235.3c0,.384-.062.755-.1,1.139-.285,3.255-.569,6.522-.879,9.79v.111h0c0,.21.136.235.384.235H237.61c.186,0,.3,0,.272.26-.149,1.423-.272,2.859-.384,4.295a.384.384,0,0,1-.347.4l-3.861,1.064c-1.238-.359-2.574-.718-3.874-1.052a.4.4,0,0,1-.359-.433c-.062-.78-.136-1.559-.2-2.339,0-.235-.1-.322-.347-.309h-3.106c-.309,0-.347.1-.322.371.161,1.757.322,3.515.458,5.285,0,.21.124.26.309.309,1.5.421,3.007.854,4.517,1.238.978.26,1.931.582,2.921.767a.334.334,0,0,0,.111,0l7.426-2.042c.173,0,.21-.149.223-.285l.111-1.139c.285-3.267.569-6.535.879-9.79v-.124Z" transform="translate(53.435 23.413)" fill="#ffe200"/>
  <path id="パス_77" data-name="パス 77" d="M231.449,88.66v8.664a2.76,2.76,0,0,1-.73,1.943,2.834,2.834,0,0,1-.866.594,2.883,2.883,0,0,1-1.176.223,2.364,2.364,0,0,1-1.3-.334,4.394,4.394,0,0,1-.817-.681l1.238-1.015a1.733,1.733,0,0,0,.408.3,1.064,1.064,0,0,0,.483.111,1.152,1.152,0,0,0,.334,0,.866.866,0,0,0,.359-.223.879.879,0,0,0,.3-.408,1.733,1.733,0,0,0,.111-.681V88.66Z" transform="translate(53.841 21.07)" fill="#ffe200"/>
  <path id="パス_78" data-name="パス 78" d="M237.065,91.939h-1.621V91.58a1.757,1.757,0,0,0-.26-.965.99.99,0,0,0-.891-.408.953.953,0,0,0-.879.446,1.755,1.755,0,0,0-.173.47,3.882,3.882,0,0,0,0,.557q0,.334,0,.557a1.348,1.348,0,0,0,.124.4.927.927,0,0,0,.285.3,2.24,2.24,0,0,0,.495.26l1.238.5a2.922,2.922,0,0,1,.879.483,2.2,2.2,0,0,1,.532.644,3.553,3.553,0,0,1,.235.866,9.724,9.724,0,0,1,.062,1.114,5.633,5.633,0,0,1-.148,1.324,2.661,2.661,0,0,1-.458,1.04,2.364,2.364,0,0,1-.879.705,3,3,0,0,1-1.312.248,2.908,2.908,0,0,1-1.1-.2,2.476,2.476,0,0,1-.879-.582,2.7,2.7,0,0,1-.582-.842,2.549,2.549,0,0,1-.21-1.064v-.606h1.621v.507a1.324,1.324,0,0,0,.26.8,1,1,0,0,0,.891.359,1.547,1.547,0,0,0,.644-.111.966.966,0,0,0,.359-.347,1.348,1.348,0,0,0,.148-.532V96.8a5.784,5.784,0,0,0,0-.73,1.435,1.435,0,0,0-.124-.47.94.94,0,0,0-.3-.285,4.454,4.454,0,0,0-.483-.235l-1.163-.483a2.475,2.475,0,0,1-1.411-1.139,3.947,3.947,0,0,1-.359-1.77,4.356,4.356,0,0,1,.173-1.238,2.933,2.933,0,0,1,.532-.99,2.389,2.389,0,0,1,.854-.656,2.847,2.847,0,0,1,1.238-.248,2.71,2.71,0,0,1,1.114.223,2.834,2.834,0,0,1,.866.594,2.475,2.475,0,0,1,.73,1.745Z" transform="translate(55.02 21.046)" fill="#ffe200"/>
  <path id="パス_79" data-name="パス 79" d="M170.462,143.183a33.652,33.652,0,1,1,33.652-33.652,33.652,33.652,0,0,1-33.652,33.652Z" transform="translate(32.513 18.033)" fill="#c9caca"/>
  <path id="パス_80" data-name="パス 80" d="M164,109.532V75.88a33.627,33.627,0,0,1,31.733,22.5Z" transform="translate(38.974 18.033)" fill="#9194c9"/>
  <circle id="楕円形_9" data-name="楕円形 9" cx="23.342" cy="23.342" r="23.342" transform="translate(179.644 104.222)" fill="#192448"/>
  <path id="パス_81" data-name="パス 81" d="M153.58,105.145V94.959c0-.483,0-.483.507-.5l5.73-.111a11.882,11.882,0,0,1,4.555.681,6.51,6.51,0,0,1,4.344,4.951,7.809,7.809,0,0,1-.483,4.951,6.547,6.547,0,0,1-4.159,3.54,14.023,14.023,0,0,1-5.309.545c-.8,0-.792-.074-.792.718v5.644c0,.408,0,.458-.446.458h-3.49c-.421,0-.446,0-.446-.446Zm4.406-3.28V105c0,.173,0,.285.235.285a11.722,11.722,0,0,0,3.713-.285,3.069,3.069,0,0,0,2.475-2.339,3.23,3.23,0,0,0-2.562-4.121,17.912,17.912,0,0,0-3.639-.136c-.223,0-.223.124-.223.285C158,99.749,157.986,100.8,157.986,101.865Z" transform="translate(36.498 22.42)" fill="#9194c9"/>
  <path id="パス_82" data-name="パス 82" d="M172.633,100.832a9.142,9.142,0,0,1,1.139-1.064,6.869,6.869,0,0,1,3.961-1.448c.309,0,.408.111.408.421v3.713c0,.322-.111.408-.408.4a8.528,8.528,0,0,0-4.022.879l-.173.087a1.163,1.163,0,0,0-.668,1.238V114.6c0,.483,0,.483-.483.483h-3.614c-.433,0-.483,0-.483-.47v-9.9c0-1.782,0-3.564-.1-5.347,0-.792,0-.644.631-.656h2.847c.446,0,.619.136.693.582a7.859,7.859,0,0,1,.186,1.423A.51.51,0,0,0,172.633,100.832Z" transform="translate(39.97 23.365)" fill="#9194c9"/>
</svg>
